<?xml version="1.0" encoding="UTF-8" standalone="no"?>
<!DOCTYPE svg PUBLIC "-//W3C//DTD SVG 1.1//EN"
 "http://www.w3.org/Graphics/SVG/1.1/DTD/svg11.dtd">
<!-- Generated by graphviz version 2.40.1 (20161225.0304)
 -->
<!-- Title: G Pages: 1 -->
<svg width="219pt" height="220pt"
 viewBox="0.00 0.00 263.00 264.00" xmlns="http://www.w3.org/2000/svg" xmlns:xlink="http://www.w3.org/1999/xlink">
<g id="graph0" class="graph" transform="scale(.8333 .8333) rotate(0) translate(4 260)">
<title>G</title>
<polygon fill="#ffffff" stroke="transparent" points="-4,4 -4,-260 259,-260 259,4 -4,4"/>
<!-- 140234079470352 -->
<g id="node1" class="node">
<title>140234079470352</title>
<polygon fill="none" stroke="#000000" points="0,-219.5 0,-255.5 129,-255.5 129,-219.5 0,-219.5"/>
<text text-anchor="middle" x="64.5" y="-233.8" font-family="Times,serif" font-size="14.00" fill="#000000">input_1: InputLayer</text>
</g>
<!-- 140234079470672 -->
<g id="node3" class="node">
<title>140234079470672</title>
<polygon fill="none" stroke="#000000" points="21.5,-146.5 21.5,-182.5 107.5,-182.5 107.5,-146.5 21.5,-146.5"/>
<text text-anchor="middle" x="64.5" y="-160.8" font-family="Times,serif" font-size="14.00" fill="#000000">rnn_1: RNN</text>
</g>
<!-- 140234079470352&#45;&gt;140234079470672 -->
<g id="edge1" class="edge">
<title>140234079470352&#45;&gt;140234079470672</title>
<path fill="none" stroke="#000000" d="M64.5,-219.4551C64.5,-211.3828 64.5,-201.6764 64.5,-192.6817"/>
<polygon fill="#000000" stroke="#000000" points="68.0001,-192.5903 64.5,-182.5904 61.0001,-192.5904 68.0001,-192.5903"/>
</g>
<!-- 140237014743952 -->
<g id="node2" class="node">
<title>140237014743952</title>
<polygon fill="none" stroke="#000000" points="126,-146.5 126,-182.5 255,-182.5 255,-146.5 126,-146.5"/>
<text text-anchor="middle" x="190.5" y="-160.8" font-family="Times,serif" font-size="14.00" fill="#000000">input_2: InputLayer</text>
</g>
<!-- 140234079473232 -->
<g id="node4" class="node">
<title>140234079473232</title>
<polygon fill="none" stroke="#000000" points="84.5,-73.5 84.5,-109.5 170.5,-109.5 170.5,-73.5 84.5,-73.5"/>
<text text-anchor="middle" x="127.5" y="-87.8" font-family="Times,serif" font-size="14.00" fill="#000000">rnn_2: RNN</text>
</g>
<!-- 140237014743952&#45;&gt;140234079473232 -->
<g id="edge2" class="edge">
<title>140237014743952&#45;&gt;140234079473232</title>
<path fill="none" stroke="#000000" d="M174.927,-146.4551C167.3548,-137.6809 158.1162,-126.9759 149.8115,-117.353"/>
<polygon fill="#000000" stroke="#000000" points="152.2955,-114.8742 143.1122,-109.5904 146.9961,-119.4477 152.2955,-114.8742"/>
</g>
<!-- 140234079470672&#45;&gt;140234079473232 -->
<g id="edge3" class="edge">
<title>140234079470672&#45;&gt;140234079473232</title>
<path fill="none" stroke="#000000" d="M80.073,-146.4551C87.6452,-137.6809 96.8838,-126.9759 105.1885,-117.353"/>
<polygon fill="#000000" stroke="#000000" points="108.0039,-119.4477 111.8878,-109.5904 102.7045,-114.8742 108.0039,-119.4477"/>
</g>
<!-- 140237014789648 -->
<g id="node5" class="node">
<title>140237014789648</title>
<polygon fill="none" stroke="#000000" points="75,-.5 75,-36.5 180,-36.5 180,-.5 75,-.5"/>
<text text-anchor="middle" x="127.5" y="-14.8" font-family="Times,serif" font-size="14.00" fill="#000000">dense_1: Dense</text>
</g>
<!-- 140234079473232&#45;&gt;140237014789648 -->
<g id="edge5" class="edge">
<title>140234079473232&#45;&gt;140237014789648</title>
<path fill="none" stroke="#000000" d="M127.5,-73.4551C127.5,-65.3828 127.5,-55.6764 127.5,-46.6817"/>
<polygon fill="#000000" stroke="#000000" points="131.0001,-46.5903 127.5,-36.5904 124.0001,-46.5904 131.0001,-46.5903"/>
</g>
</g>
</svg>
